PathFileType	4	(X/Y/Z)	46_2_36_p0_0-292_filt_butterworth.trc
DataRate	CameraRate	NumFrames	NumMarkers	Units	OrigDataRate	OrigDataStartFrame	OrigNumFrames
59.0	59.0	5	27	m	59.0	255	292
Frame#	Time	RHip			RKnee			RAnkle			RBigToe			RSmallToe			RHeel			LHip			LKnee			LAnkle			LBigToe			LSmallToe			LHeel			Neck			Head			Nose			RShoulder			RElbow			RWrist			RThumb			RIndex			RPinky			LShoulder			LElbow			LWrist			LThumb			LIndex			LPinky			
		X1	Y1	Z1	X2	Y2	Z2	X3	Y3	Z3	X4	Y4	Z4	X5	Y5	Z5	X6	Y6	Z6	X7	Y7	Z7	X8	Y8	Z8	X9	Y9	Z9	X10	Y10	Z10	X11	Y11	Z11	X12	Y12	Z12	X13	Y13	Z13	X14	Y14	Z14	X15	Y15	Z15	X16	Y16	Z16	X17	Y17	Z17	X18	Y18	Z18	X19	Y19	Z19	X20	Y20	Z20	X21	Y21	Z21	X22	Y22	Z22	X23	Y23	Z23	X24	Y24	Z24	X25	Y25	Z25	X26	Y26	Z26	X27	Y27	Z27	
255	4.322033898305085	0.42847744532012344	0.3890505669512748	0.6474285475473954	0.38549881139705133	0.47857872633225274	1.0810564001185436	0.3551836727798856	0.5293832920513092	1.4843362716702306	0.3516097968018978	0.3277934825260116	1.5005700239468733	0.4217683894783641	0.3497152928060689	1.5005914301315506	0.3208113177778655	0.6283824106932048	1.5654918056208995	0.2365622224606455	0.3730998595960365	0.6465828462836566	0.22964890765072812	0.39303432738842525	1.034654527689232	0.1719799060489231	0.5022770250117956	1.4667612599824364	0.1979186057740912	0.2884642998628685	1.4705621561426776	0.14439452949725878	0.34187062956438985	1.4851986628361584	0.174902086935904	0.5672268904229071	1.5581035048944452	0.34158151347234517	0.34334684466389054	0.08312921209017105	0.3683727217159547	0.29533555820805396	-0.14377227049718908	0.3617625713395752	0.24319400476225578	-0.02398501087291405	0.4977820689602942	0.3334851798991908	0.20608661130270994	0.5180226330625991	0.334180295879555	0.4687601187858033	0.41017440204074435	0.20436363286261996	0.624408883844084	0.2820019111779797	0.22530286234617136	0.6746126186688693	0.28244351142464225	0.23964510630720887	0.7014848144739959	0.3234245587893113	0.20319257060557558	0.7254640978932889	0.20007019296807696	0.35766948961435396	0.17428429924407415	0.14539032870434593	0.31418244601443723	0.43394085613121824	0.27181337239495057	0.1925576027271358	0.5861759858877077	0.34510451794061375	0.17338688323328963	0.6483665354910069	0.3575380041336885	0.16567920366767375	0.6863264926159877	0.3374480619781076	0.19892672291607483	0.706367171834324
256	4.338983050847458	0.42846371738668504	0.3890442558929291	0.6474390747461982	0.3855071944467918	0.4786003463410241	1.0810025846325502	0.3552049867063943	0.5293593704516979	1.4843157184109583	0.35162416046089917	0.3278023343340856	1.5006424181003095	0.42179085435576913	0.349839164083308	1.5006842849095483	0.3208105292569063	0.6283312643027943	1.5654698658193573	0.23668523786820597	0.37282949357509215	0.6477405326352034	0.22968914034780363	0.39326984013677535	1.035206397538209	0.17201284615313714	0.502085423673122	1.4670835749028939	0.19792597493584468	0.28855094999086855	1.4706322436820911	0.14440652257466968	0.3418585151630933	1.4852003296490734	0.17480960005613255	0.5669940157428831	1.5569928616069744	0.34157365529869227	0.3434051747983746	0.08277534433052398	0.3683608944624066	0.29542049966728817	-0.14377170457826532	0.3617991284690282	0.24209755147394882	-0.023997530579365694	0.4977869351661165	0.3335171931853313	0.20605362186453013	0.5179788517885707	0.334063962334978	0.4686689623746719	0.4104185848497086	0.204015757491201	0.6244973690781864	0.2833470092489244	0.2254869802502681	0.6752064273706063	0.28331175680469406	0.2395693232380059	0.701231210731127	0.3266469149095169	0.19893603224635037	0.7253663232287904	0.20006429181694863	0.3576457719569488	0.17426940474690997	0.14541911554042616	0.3141774656053799	0.43414830674501953	0.2718729229814716	0.19343831422502591	0.5859981953109229	0.34482537660802254	0.17262185384036333	0.6482498139041266	0.357677124675856	0.16542322793813793	0.6849787730052325	0.3373109421573716	0.19895613689202243	0.7063325400275658
257	4.3559322033898304	0.4283174872127433	0.3891069864127764	0.6473324511290758	0.3854658750106854	0.47864734242041884	1.0809539632634564	0.35522302284765717	0.5293656198915065	1.4843033927532843	0.3516470548363883	0.32776254895053936	1.5006947119764942	0.4218127349403543	0.34989624747456294	1.5007228517371631	0.3208254894847792	0.6283526888761044	1.5654408126030186	0.2367599903297444	0.37262761881274653	0.6478205152873588	0.2296078397299708	0.3931544931824377	1.0347531311701414	0.17213375551670043	0.5016337154186186	1.4680310429227756	0.19786449096107242	0.28885138619752476	1.4702689731264735	0.14438420895499487	0.341852202582154	1.485182553744304	0.17460135396499868	0.5663401914580057	1.5552333309644664	0.34159853926083855	0.343381445989944	0.0827573568472611	0.3687391834468504	0.29581166320090096	-0.14372587125712638	0.36198119082620667	0.24205919310556656	-0.02397685717352705	0.49778129780066344	0.3334552911176617	0.20615615698504822	0.5179404651708339	0.3339781623049034	0.4681371059300784	0.4106858562068955	0.20339068391559706	0.6248452265859811	0.28622618325792687	0.22779726698039365	0.6769384958615283	0.2849233914306398	0.23968768191685072	0.7018117086132262	0.32774373454980693	0.19586810028581486	0.725272919354179	0.20006733521148995	0.35763938466364353	0.1742639751275711	0.14531994042129942	0.3143700437142788	0.43416610440151066	0.27234917892420113	0.1964676002197162	0.587699426401864	0.34492328660174604	0.17259631969176606	0.6487325170674432	0.357815737162084	0.16499099877121912	0.6845384676371178	0.3373997368487279	0.1986702681397988	0.7077568607129463
258	4.372881355932203	0.4281414486722877	0.38917644690066255	0.6472773518492485	0.38523215808750577	0.4786899674666887	1.0809424367225393	0.3552268314734374	0.529397656818374	1.4843046186517022	0.3516854681615907	0.3277357300534412	1.5007111650849867	0.4218527249106091	0.349891320081981	1.5007096813037295	0.32084663962602483	0.6284199735407213	1.565421029572117	0.23661778211723944	0.3723826608563456	0.6462381126722818	0.22941702723355034	0.39270119201409664	1.0333662909592802	0.17231899961764158	0.5010434456862765	1.4694004486213048	0.19768528110826744	0.28942301225525185	1.4691641091468388	0.14435825279796555	0.341827326078729	1.4851311360116717	0.1744194518022713	0.5657394401853069	1.5538882868371953	0.3416313533638009	0.34332858869980903	0.08280243308971802	0.3697900733007133	0.2966062535114776	-0.1437454388282563	0.36261819821643426	0.2422927723095977	-0.023915255193846272	0.4977685573194164	0.3333381816310317	0.2065662093182275	0.5179227379329274	0.3339291081604279	0.4667175033694854	0.41092083775679356	0.2027167563963189	0.6256332872191731	0.288703165617608	0.2320017871173061	0.6792911348294638	0.28649193928167305	0.24002630778801254	0.7034122875482222	0.32760397260564333	0.19580147200792627	0.7252633619089204	0.2000718844155337	0.3576475820010988	0.17426052214967858	0.14529094296010417	0.31439135285515357	0.43410437959117143	0.27308907344572764	0.2005995451781485	0.5906366593314026	0.34545580173160045	0.17407885135365012	0.6501473259384865	0.35786347378642147	0.16508054924309964	0.6848917305013371	0.33789675316744106	0.19831901300893423	0.7100378361531653
259	4.389830508474576	0.4280435860306531	0.3892743136938247	0.6474109142341492	0.384590402256343	0.47853028334841263	1.0810403957344858	0.3552189612372078	0.5294529130857879	1.484315365558064	0.3517334257096761	0.32777208317304857	1.5006881563825587	0.4219115347764871	0.3498686811101617	1.5006567856445379	0.32086134787229076	0.6285127976215161	1.565440171651686	0.23601961154614287	0.3718349671776984	0.643768307470322	0.22919102273645758	0.392094378939559	1.0315863746009875	0.17246825392034668	0.5006059619977781	1.4705282379552949	0.19744836696210066	0.29008086787023823	1.4676174090121166	0.14434173755397006	0.3417674739128754	1.4850524723754608	0.1743535534677981	0.5654916463990302	1.55346301169947	0.341649145245067	0.34327679238666325	0.08280761701918389	0.37133314057439337	0.2972824007080165	-0.14381873011700275	0.36356327047204007	0.24269437520433976	-0.023848260207122964	0.49775430999051873	0.33325274757093204	0.20717387913080676	0.5179216573116885	0.3339007898219629	0.46472751995527506	0.4111208729726475	0.20249984508261698	0.6268642090451831	0.2898551627012567	0.23710365186801563	0.6827311834577162	0.2871676566150676	0.24065158131888176	0.7064987644175889	0.32762251615002075	0.19921201627696156	0.7254095348549164	0.20007392642778782	0.35765372331255746	0.17425581094253448	0.14591431995956133	0.3134862890977972	0.4339694676194418	0.27387228531892255	0.2045454039030093	0.5938202120298189	0.3467365120689418	0.17760190226261643	0.6523548201205711	0.35769695592736195	0.16742835242280293	0.686622281994511	0.33900815489279246	0.1981788913791922	0.712195098420233
